<svg width="22" height="22" viewBox="0 0 22 22" fill="none" xmlns="http://www.w3.org/2000/svg">
<path d="M20.5 10.75V2.625C20.5 2.19402 20.3288 1.7807 20.024 1.47595C19.7193 1.1712 19.306 1 18.875 1H2.625C2.19402 1 1.7807 1.1712 1.47595 1.47595C1.1712 1.7807 1 2.19402 1 2.625V18.875C1 19.306 1.1712 19.7193 1.47595 20.024C1.7807 20.3288 2.19402 20.5 2.625 20.5H10.75" stroke="#808080" stroke-width="2" stroke-linecap="round" stroke-linejoin="round"/>
<path d="M15.0833 18.3334C16.8782 18.3334 18.3333 16.8783 18.3333 15.0834C18.3333 13.2884 16.8782 11.8334 15.0833 11.8334C13.2883 11.8334 11.8333 13.2884 11.8333 15.0834C11.8333 16.8783 13.2883 18.3334 15.0833 18.3334Z" stroke="#808080" stroke-width="2"/>
<path d="M5.33325 10.75H9.66659M17.7916 17.25L20.4999 19.4166L17.7916 17.25ZM5.33325 6.41663H16.1666H5.33325Z" stroke="#808080" stroke-width="2" stroke-linecap="round" stroke-linejoin="round"/>
</svg>
