<svg width="100%" height="100%" viewBox="0 0 30 30" fill="none" xmlns="http://www.w3.org/2000/svg">
<path d="M22.0457 6.61564C21.8551 6.27024 21.5822 5.98239 21.2536 5.78019C20.925 5.57798 20.5518 5.46832 20.1706 5.4619H6.05186L5.4121 2.85445C5.34747 2.60274 5.20326 2.38135 5.00297 2.22632C4.80267 2.07129 4.5581 1.99175 4.30908 2.00068H2.10303C1.81049 2.00068 1.52993 2.12223 1.32307 2.3386C1.11621 2.55497 1 2.84843 1 3.15442C1 3.46041 1.11621 3.75387 1.32307 3.97024C1.52993 4.18661 1.81049 4.30816 2.10303 4.30816H3.47078L6.51513 16.1456C6.57977 16.3973 6.72398 16.6187 6.92427 16.7737C7.12456 16.9287 7.36913 17.0082 7.61816 16.9993H17.5454C17.7491 16.9987 17.9486 16.939 18.1219 16.827C18.2952 16.715 18.4354 16.555 18.5271 16.3648L22.145 8.79622C22.3018 8.45242 22.3748 8.07336 22.3575 7.69287C22.3402 7.31239 22.2331 6.9423 22.0457 6.61564ZM16.8615 14.6918H8.45646L6.65852 7.76939H20.1706L16.8615 14.6918Z" fill="black"/>
<path d="M7.5 21C8.32843 21 9 20.3284 9 19.5C9 18.6716 8.32843 18 7.5 18C6.67157 18 6 18.6716 6 19.5C6 20.3284 6.67157 21 7.5 21Z" fill="black"/>
<path d="M17.5 21C18.3284 21 19 20.3284 19 19.5C19 18.6716 18.3284 18 17.5 18C16.6716 18 16 18.6716 16 19.5C16 20.3284 16.6716 21 17.5 21Z" fill="black"/>
</svg>
