<svg width="25" height="23" viewBox="0 0 25 23" fill="none" xmlns="http://www.w3.org/2000/svg">
<path d="M18.2578 1.82C18.9078 1.81944 19.5513 1.95116 20.1506 2.20743C20.75 2.4637 21.2931 2.83936 21.7482 3.3124C22.6859 4.28281 23.2115 5.59027 23.2115 6.9524C23.2115 8.31453 22.6859 9.62199 21.7482 10.5924L12.5 20.1383L3.25179 10.5924C2.3141 9.62199 1.78849 8.31453 1.78849 6.9524C1.78849 5.59027 2.3141 4.28281 3.25179 3.3124C3.70714 2.8397 4.25032 2.46424 4.84961 2.20793C5.4489 1.95162 6.09229 1.81961 6.74218 1.81961C7.39208 1.81961 8.03546 1.95162 8.63475 2.20793C9.23405 2.46424 9.77723 2.8397 10.2326 3.3124L12.5 5.6784L14.7585 3.3306C15.2122 2.85193 15.7559 2.47144 16.3572 2.21188C16.9584 1.95233 17.6049 1.81905 18.2578 1.82ZM18.2578 2.4414e-06C17.3701 -0.000764434 16.4913 0.179141 15.6727 0.529169C14.8541 0.879198 14.1124 1.3923 13.4909 2.0384L12.5 3.0576L11.5091 2.0384C10.8869 1.39347 10.1449 0.881255 9.3265 0.531616C8.50808 0.181977 7.62957 0.00190866 6.74218 0.00190866C5.8548 0.00190866 4.97629 0.181977 4.15787 0.531616C3.33945 0.881255 2.59749 1.39347 1.97525 2.0384C0.709312 3.3521 0 5.11999 0 6.9615C0 8.80301 0.709312 10.5709 1.97525 11.8846L12.5 22.75L23.0248 11.8846C24.2907 10.5709 25 8.80301 25 6.9615C25 5.11999 24.2907 3.3521 23.0248 2.0384C22.4027 1.39312 21.6608 0.880557 20.8423 0.530588C20.0239 0.180619 19.1453 0.000251249 18.2578 2.4414e-06Z" fill="#FF0000"/>
</svg>
