<svg width="25" height="25" viewBox="0 0 25 25" fill="none" xmlns="http://www.w3.org/2000/svg">
<path d="M11.5776 0.259882C11.7942 0.0914477 12.0607 0 12.335 0C12.6093 0 12.8758 0.0914477 13.0924 0.259882L23.2416 8.15401C23.6867 8.50023 24.0468 8.9436 24.2943 9.45025C24.5419 9.95689 24.6704 10.5134 24.67 11.0773V22.2031C24.67 22.8574 24.4101 23.4848 23.9474 23.9475C23.4848 24.4101 22.8573 24.67 22.203 24.67H17.269C16.6147 24.67 15.9872 24.4101 15.5246 23.9475C15.0619 23.4848 14.802 22.8574 14.802 22.2031V14.8023H9.868V22.2031C9.868 22.8574 9.60808 23.4848 9.14543 23.9475C8.68278 24.4101 8.05529 24.67 7.401 24.67H2.467C1.81271 24.67 1.18522 24.4101 0.722567 23.9475C0.259915 23.4848 0 22.8574 0 22.2031V11.0773C0 9.93265 0.527938 8.85708 1.43086 8.15401L11.5776 0.259882ZM12.335 2.79587L2.94313 10.1004C2.79444 10.2161 2.67421 10.3643 2.59168 10.5336C2.50914 10.7029 2.46649 10.8889 2.467 11.0773V22.2031H7.401V14.8023C7.401 14.1481 7.66092 13.5206 8.12357 13.058C8.58622 12.5953 9.21371 12.3354 9.868 12.3354H14.802C15.4563 12.3354 16.0838 12.5953 16.5464 13.058C17.0091 13.5206 17.269 14.1481 17.269 14.8023V22.2031H22.203V11.0773C22.2035 10.8889 22.1609 10.7029 22.0783 10.5336C21.9958 10.3643 21.8756 10.2161 21.7269 10.1004L12.335 2.79834V2.79587Z" fill="black"/>
</svg>
