<svg width="18" height="24" viewBox="0 0 18 24" fill="none" xmlns="http://www.w3.org/2000/svg">
<path d="M16.125 4H11.3242C11.1749 3.99989 11.0317 4.05888 10.9258 4.16406L1.32813 13.7617C1.11798 13.9729 1 14.2587 1 14.5566C1 14.8546 1.11798 15.1404 1.32813 15.3516L5.89844 19.9219C6.10962 20.132 6.39543 20.25 6.69336 20.25C6.99129 20.25 7.2771 20.132 7.48828 19.9219L17.082 10.3281C17.1872 10.2222 17.2462 10.079 17.2461 9.92969V5.125C17.2468 4.97739 17.2183 4.8311 17.1623 4.69453C17.1063 4.55797 17.0238 4.43384 16.9196 4.32928C16.8154 4.22472 16.6915 4.1418 16.5552 4.08529C16.4188 4.02878 16.2726 3.99979 16.125 4V4Z" stroke="#0FA958" stroke-width="1.5" stroke-linecap="round" stroke-linejoin="round"/>
<path d="M14.25 9.5C14.0028 9.5 13.7611 9.42669 13.5555 9.28934C13.35 9.15199 13.1898 8.95676 13.0952 8.72835C13.0005 8.49995 12.9758 8.24861 13.024 8.00614C13.0723 7.76366 13.1913 7.54093 13.3661 7.36612C13.5409 7.1913 13.7637 7.07225 14.0061 7.02402C14.2486 6.97579 14.4999 7.00054 14.7284 7.09515C14.9568 7.18976 15.152 7.34998 15.2893 7.55554C15.4267 7.7611 15.5 8.00277 15.5 8.25C15.5 8.58152 15.3683 8.89946 15.1339 9.13388C14.8995 9.3683 14.5815 9.5 14.25 9.5Z" fill="#0FA958"/>
</svg>
