<svg width="20" height="24" viewBox="0 0 20 24" fill="none" xmlns="http://www.w3.org/2000/svg">
<path fill-rule="evenodd" clip-rule="evenodd" d="M8.56251 0.135132C6.13477 0.750403 4.38849 2.53135 3.81056 4.98128C3.59367 5.90061 3.59379 6.58596 3.8108 7.61004C4.08176 8.88846 4.55058 9.72281 5.57187 10.7441C6.62444 11.7967 7.44775 12.246 8.85832 12.5377C12.2775 13.2447 15.7511 10.7224 16.2624 7.16134C16.6865 4.20756 14.8635 1.27935 11.9997 0.31456C11.0037 -0.0208985 9.48996 -0.0999441 8.56251 0.135132ZM11.3423 1.96967C14.618 3.06649 15.6168 7.11297 13.2069 9.52289C12.8831 9.84683 12.3018 10.267 11.9152 10.4568C11.2851 10.7659 11.0869 10.8017 10 10.8017C8.90415 10.8017 8.71769 10.7674 8.06023 10.4451C7.16006 10.0041 6.30874 9.14682 5.85738 8.22725C5.55029 7.60155 5.51428 7.40127 5.51428 6.31597C5.51428 5.22909 5.55005 5.03087 5.8592 4.40081C6.4484 3.20021 7.68779 2.17274 8.8947 1.88468C9.56695 1.72417 10.7297 1.76454 11.3423 1.96967ZM5.01261 14.6805C3.5596 14.9964 2.20552 15.8716 1.28558 17.0894C0.367829 18.3043 0.0035165 19.6079 0.000121899 21.688C-0.00181787 22.9175 0.0161252 23.015 0.295695 23.2944L0.593207 23.592H10H19.4068L19.7043 23.2944C19.9839 23.015 20.0018 22.9175 19.9999 21.688C19.9987 20.9683 19.9196 20.0106 19.8241 19.5601C19.3165 17.1642 17.3331 15.1841 14.9311 14.675C13.8169 14.4389 6.10409 14.4431 5.01261 14.6805ZM15.085 16.5476C16.9861 17.2159 18.1834 18.9349 18.1834 20.9963V21.7735H10H1.8166V20.9469C1.8166 19.8824 2.06173 19.0747 2.63239 18.2594C3.16922 17.4924 3.9741 16.8808 4.87149 16.558C5.45888 16.3465 5.89824 16.3263 9.97272 16.3223C14.0451 16.3183 14.4878 16.3378 15.085 16.5476Z" fill="#808080"/>
</svg>
